<svg width="1440" height="3270" viewBox="0 0 1440 3270" fill="none" xmlns="http://www.w3.org/2000/svg">
<g clip-path="url(#clip0_876_46924)">
<path d="M6.36954 1917C52.3411 2061.7 166.211 2175.28 311 2220.94V3205H-299L-298.63 2220.94C-154.013 2174.3 -39.643 2061.83 6.36954 1917Z" fill="#0C0B0B"/>
<path d="M311 2220.94C166.211 2175.28 52.3411 2061.7 6.36953 1917C-39.643 2061.83 -154.013 2174.3 -298.63 2220.94M311 2220.94V3205H-299L-298.63 2220.94M311 2220.94H-298.63" stroke="white"/>
<path d="M180.803 2595.15C206.723 2572.17 223.835 2532.59 223.835 2487.62C223.835 2425.73 191.413 2374.05 148.227 2361.79M180.472 2594.78L180.271 2594.95L180.308 2595.22L208.221 2792.82L209.211 2792.68L181.336 2595.35C207.268 2572.23 224.335 2532.59 224.335 2487.62C224.335 2426.14 192.412 2374.57 149.515 2361.65C151.927 2361.4 154.365 2361.27 156.824 2361.27C182.955 2361.27 206.652 2375.56 223.834 2398.73C241.016 2421.91 251.658 2453.95 251.658 2489.36C251.658 2534.21 234.588 2573.64 208.792 2596.52L208.591 2596.69L208.629 2596.96L236.46 2793.99H81.3814L108.767 2600.12L108.807 2599.84L108.584 2599.66C80.7188 2577.37 61.9902 2536.34 61.9902 2489.36C61.9902 2453.95 72.6325 2421.91 89.8145 2398.73C104.804 2378.51 124.752 2365.06 146.949 2361.96C190.411 2373.54 223.335 2425.31 223.335 2487.62C223.335 2532.47 206.266 2571.9 180.472 2594.78Z" fill="#0C0B0B" stroke="white"/>
<path d="M189.181 2489.05C189.181 2516.89 166.622 2539.46 138.795 2539.46C110.969 2539.46 88.4102 2516.89 88.4102 2489.05C88.4102 2461.2 110.969 2438.63 138.795 2438.63C166.622 2438.63 189.181 2461.2 189.181 2489.05Z" fill="#0C0B0B" stroke="#FDFCFA"/>
<path d="M157 2487.24L156.396 2487.66L157.013 2488.06L174.052 2499.23C172.666 2504.54 170.361 2509.05 167.483 2512.23C164.544 2515.48 161.03 2517.34 157.286 2517.34C152.357 2517.34 147.816 2514.11 144.483 2508.73C141.154 2503.36 139.078 2495.91 139.078 2487.65C139.078 2479.39 141.154 2471.93 144.483 2466.56C147.816 2461.18 152.357 2457.96 157.286 2457.96C160.953 2457.96 164.399 2459.74 167.301 2462.87C170.142 2465.93 172.441 2470.27 173.873 2475.4L157 2487.24Z" fill="#0C0B0B" stroke="#FDFCFA"/>
<path d="M-39.8156 2885.59C-56.8761 2883.77 -74.4653 2884.22 -92.215 2887.19C-156.244 2897.92 -207.573 2939.06 -233.884 2993.35C-252.368 2997.15 -269.208 3004.66 -283.749 3014.98C-297.781 3009.03 -313.616 3006.88 -329.76 3009.58C-374.933 3017.15 -405.416 3059.9 -397.847 3105.07C-391.847 3140.87 -363.742 3167.45 -329.849 3173.16C-306.994 3229.34 -247.552 3264.23 -185.231 3253.79C-174.676 3252.02 -164.622 3249.05 -155.187 3245.04C-118.091 3266.03 -73.8241 3274.91 -28.5106 3267.32C7.93515 3261.21 40.2663 3245.25 66.211 3222.62C86.8571 3253.19 124.096 3270.6 162.854 3264.11C190.311 3259.5 213.137 3243.81 227.509 3222.38C244.792 3228.94 263.991 3231.14 283.537 3227.86C321.072 3221.57 350.813 3196.62 364.845 3164.09C368.75 3164.61 372.795 3164.55 376.881 3163.87C399.063 3160.15 414.032 3139.16 410.314 3116.98C409.145 3110 406.267 3103.74 402.179 3098.55C410.89 3085.89 414.887 3069.96 412.146 3053.61C406.541 3020.16 374.882 2997.59 341.434 3003.2C327.666 3005.5 315.741 3012.22 306.865 3021.67C302.333 3019.79 297.659 3018.22 292.873 3016.97C275.884 2954.91 214.732 2914.36 149.966 2924.25C132.024 2873.47 79.7012 2841.36 24.7549 2850.57C-1.07826 2854.9 -23.3861 2867.67 -39.8156 2885.59Z" fill="#0C0B0B" stroke="white"/>
<path d="M-24.7424 1H452.998V232H-24.7424C-81.2986 166.845 -86.1616 71.1605 -24.7424 1Z" fill="#0C0B0B" stroke="white"/>
<ellipse cx="453.998" cy="116.5" rx="63" ry="115.5" fill="#0C0B0B" stroke="white"/>
<path d="M582.597 246V288.857M582.597 246H457.056M582.597 246H733.815M733.815 246V288.857M733.815 246H807.998M97.5398 606C253.146 246 459.894 246 459.894 246H97.5398L-32.002 246V606H97.5398Z" stroke="white"/>
<path d="M156.671 281.613L156.619 282.179L157.187 282.158C261.839 278.36 355.597 352.726 373.369 458.826C375.615 472.234 376.549 485.557 376.264 498.666L376.255 499.059L376.635 499.16C394.666 503.953 411.199 513.029 424.868 525.412L425.088 525.612L425.369 525.514C429.426 524.09 433.659 522.992 438.044 522.257C479.386 515.326 518.517 543.236 525.445 584.596C532.373 625.956 504.474 665.104 463.132 672.034C457.239 673.022 451.391 673.302 445.675 672.936L445.377 672.917L445.219 673.169C428.2 700.286 400.114 720.279 366.067 725.987C323.479 733.127 282.426 716.094 256.92 684.883L256.671 684.578L256.317 684.748C238.765 693.178 219.746 699.306 199.58 702.687C125.818 715.053 54.5804 687.652 7.76477 636.102L7.33075 635.624L6.97656 636.164C-31.0211 694.067 -92.1087 736.567 -165.778 748.917C-271.471 766.635 -372.904 717.24 -426.547 631.778L-426.731 631.483L-427.072 631.554C-428.789 631.909 -430.52 632.234 -432.264 632.526C-506.687 645.002 -577.128 594.76 -589.6 520.306C-602.071 445.851 -551.849 375.38 -477.426 362.904C-461.29 360.199 -445.342 360.442 -430.131 363.241L-429.789 363.304L-429.611 363.005C-392.223 300.262 -328.551 253.749 -250.9 240.732C-231.833 237.535 -212.904 236.523 -194.37 237.512L-193.922 237.536L-193.85 237.093C-182.093 164.314 -125.261 103.819 -48.5521 90.9591C47.7076 74.8218 138.818 139.807 154.949 236.107C157.528 251.503 158.034 266.767 156.671 281.613Z" fill="#0C0B0B" stroke="white"/>
<path d="M572 810.23V785.726H-92V1503.54V1637H248.748L247.744 1503.54C247.744 1413.73 283.454 1327.6 347.018 1264.09L409.872 1201.29C513.681 1097.58 572 956.907 572 810.23Z" fill="#0C0B0B"/>
<path d="M160.897 895.04H303.71V1014.84H160.897V895.04Z" fill="#0C0B0B"/>
<path d="M303.687 784.219L303.687 1223.5M160.795 784.219L160.795 1223.5M160.897 1143.63H303.71M104.867 784.226V645.704C104.867 630.404 117.281 618 132.596 618C147.91 618 160.325 630.404 160.325 645.704V784.226M248.748 784.226V645.704C248.748 630.404 261.163 618 276.478 618C291.792 618 304.207 630.404 304.207 645.704V784.226M572 785.726V810.23C572 956.907 513.681 1097.58 409.872 1201.29L347.018 1264.09C283.454 1327.6 247.744 1413.73 247.744 1503.54L248.748 1637H-92V1503.54V785.726H572ZM160.897 895.04H303.71V1014.84H160.897V895.04Z" stroke="white"/>
<path d="M759 2604H1558V3263H759V2604Z" fill="#0C0B0B" stroke="white"/>
<path d="M1097.5 2907C1186.14 2907 1258 2960.73 1258 3027C1258 3093.27 1186.14 3147 1097.5 3147C1008.86 3147 937 3093.27 937 3027C937 2960.73 1008.86 2907 1097.5 2907Z" fill="#0C0B0B"/>
<path d="M1255.52 3048.15C1242.16 2991.96 1176.49 2949.29 1097.5 2949.29C1018.51 2949.29 952.844 2991.96 939.484 3048.15C952.844 3104.33 1018.51 3147 1097.5 3147C1176.49 3147 1242.16 3104.33 1255.52 3048.15Z" fill="#0C0B0B"/>
<path d="M1097.5 3147C1186.14 3147 1258 3093.27 1258 3027C1258 2960.73 1186.14 2907 1097.5 2907C1008.86 2907 937 2960.73 937 3027C937 3093.27 1008.86 3147 1097.5 3147ZM1097.5 3147C1018.51 3147 952.844 3104.33 939.484 3048.15C952.844 2991.96 1018.51 2949.29 1097.5 2949.29C1176.49 2949.29 1242.16 2991.96 1255.52 3048.15C1242.16 3104.33 1176.49 3147 1097.5 3147Z" stroke="white"/>
<path d="M1096 2503L1096 3147" stroke="white" stroke-linecap="round" stroke-linejoin="round"/>
<path d="M1099.36 2801L1232.2 2716.39M1288.52 2700.27C1290.88 2688.81 1283.82 2677.7 1272.43 2674.91C1241.06 2667.24 1200.61 2674.67 1163.99 2697.76C1127.36 2720.84 1103.29 2754.09 1096.81 2785.63C1094.45 2797.08 1101.51 2808.2 1112.9 2810.98C1144.27 2818.65 1184.72 2811.22 1221.34 2788.14C1257.97 2765.05 1282.04 2731.8 1288.52 2700.27Z" stroke="white" stroke-linecap="round" stroke-linejoin="round"/>
<path d="M1093.03 2822L1022.47 2779.58M902.455 2721.29C900.084 2709.83 907.193 2698.7 918.668 2695.91C950.255 2688.24 991 2695.68 1027.88 2718.78C1064.77 2741.88 1089.02 2775.16 1095.54 2806.71C1097.92 2818.17 1090.81 2829.3 1079.33 2832.09C1047.74 2839.76 1007 2832.32 970.118 2809.22C933.228 2786.12 908.982 2752.84 902.455 2721.29Z" stroke="white" stroke-linecap="round" stroke-linejoin="round"/>
<path d="M813.692 2416.24C806.819 2406.97 806.764 2394.39 813.563 2385.07C865.696 2313.59 972.745 2264.5 1096.42 2264.5C1219.33 2264.5 1325.83 2312.99 1378.31 2383.76C1385.18 2393.03 1385.24 2405.61 1378.44 2414.93C1326.3 2486.41 1219.26 2535.5 1095.58 2535.5C972.668 2535.5 866.172 2487.01 813.692 2416.24Z" fill="#0C0B0B" stroke="white"/>
<path d="M986.025 1758.94L985 758.77L1528.16 402L1921 758.77V1758.93V2251H1512.15C1460.88 2024.92 1290.14 1844.94 1067.07 1781.86L986.025 1758.94Z" fill="#0C0B0B"/>
<path d="M1921 1758.93V2251H1512.15C1460.88 2024.92 1290.14 1844.94 1067.07 1781.86L986.025 1758.94M1921 1758.93V758.77L1528.16 402L985 758.77L986.025 1758.94M1921 1758.93L986.025 1758.94" stroke="white"/>
<path d="M985 758.77L1351.77 758.771M1921 758.77L1535.17 758.27M1535.17 758.27C1491.5 772.091 1457.29 806.3 1443.47 849.968C1429.69 806.429 1395.4 772.266 1351.77 758.771M1535.17 758.27C1491.5 744.448 1457.29 710.239 1443.47 666.571C1429.64 710.278 1395.39 744.652 1351.77 758.771" stroke="white"/>
<path d="M1366.85 1120.56C1366.85 1045.56 1306.05 984.762 1231.06 984.762C1156.06 984.762 1095.27 1045.56 1095.27 1120.56V1658.22H1366.85V1120.56Z" fill="#0C0B0B"/>
<path d="M1222.04 985.264C1160.41 998.292 1137.36 1043.39 1137.36 1108.33V1658.72M1095.27 1658.22V1120.56C1095.27 1045.56 1156.06 984.762 1231.06 984.762C1306.05 984.762 1366.85 1045.56 1366.85 1120.56V1658.22H1095.27Z" stroke="white"/>
<path d="M312.323 1750.62L519.445 1870.2C561.388 1894.41 615.021 1880.04 639.237 1838.1C663.453 1796.16 649.082 1742.53 607.139 1718.31L202.561 1484.74L137.555 1319.71C118.047 1270.19 66.2821 1241.33 13.8996 1250.78L-280.465 1303.87C-315.551 1310.2 -346.071 1331.66 -363.897 1362.54L-516.005 1625.99C-564.697 1710.32 -536.988 1818.11 -453.66 1868.51L-6.5126 2138.94C33.4886 2163.14 85.5597 2149.75 108.934 2109.27C131.426 2070.31 118.989 2020.54 80.8165 1996.74L69.3913 1989.62L134.559 2027.24C174.065 2050.05 224.582 2036.51 247.391 1997.01C269.372 1958.94 257.682 1910.33 220.798 1886.41L208.915 1878.7L250.694 1902.13C289.208 1923.73 337.93 1910.35 360.009 1872.11C381.794 1834.38 369.679 1786.17 332.645 1763.22L312.323 1750.62Z" fill="#0C0B0B"/>
<path d="M312.323 1750.62L519.445 1870.2C561.388 1894.41 615.021 1880.04 639.237 1838.1C663.453 1796.16 649.082 1742.53 607.139 1718.31L202.561 1484.74M312.323 1750.62L332.645 1763.22C369.679 1786.17 381.794 1834.38 360.009 1872.11C337.93 1910.35 289.208 1923.73 250.694 1902.13L208.915 1878.7M312.323 1750.62L189.431 1679.67M208.915 1878.7L220.798 1886.41C257.682 1910.33 269.372 1958.94 247.391 1997.01C224.582 2036.51 174.065 2050.05 134.559 2027.24L69.3913 1989.62M208.915 1878.7L152.301 1846.02M69.3913 1989.62L80.8165 1996.74C118.989 2020.54 131.426 2070.31 108.934 2109.27C85.5597 2149.75 33.4886 2163.14 -6.5126 2138.94L-453.66 1868.51C-536.988 1818.11 -564.697 1710.32 -516.005 1625.99L-363.897 1362.54C-346.071 1331.66 -315.551 1310.2 -280.465 1303.87L13.8996 1250.78C66.2821 1241.33 118.047 1270.19 137.555 1319.71L202.561 1484.74M69.3913 1989.62L37.6326 1971.28M60.3369 1402.63L202.561 1484.74" stroke="#FDFCFA"/>
<path d="M1659.06 1887.71L1659.13 1888.15L1659.58 1888.13C1670.68 1887.53 1682.01 1888.14 1693.43 1890.06C1739.94 1897.88 1778.07 1925.82 1800.46 1963.52L1800.64 1963.82L1800.98 1963.75C1810.07 1962.08 1819.61 1961.93 1829.26 1963.55C1873.78 1971.04 1903.82 2013.32 1896.36 2058C1888.9 2102.68 1846.77 2132.83 1802.25 2125.34C1801.21 2125.17 1800.17 2124.97 1799.14 2124.76L1798.8 2124.69L1798.62 2124.98C1766.49 2176.32 1705.75 2205.99 1642.46 2195.35C1598.34 2187.93 1561.76 2162.4 1539 2127.62L1538.65 2127.08L1538.21 2127.56C1510.18 2158.51 1467.54 2174.97 1423.38 2167.54C1411.3 2165.51 1399.92 2161.83 1389.41 2156.76L1389.05 2156.59L1388.8 2156.9C1373.55 2175.62 1349 2185.84 1323.54 2181.56C1303.18 2178.13 1286.39 2166.14 1276.21 2149.88L1276.05 2149.63L1275.75 2149.64C1272.34 2149.86 1268.85 2149.7 1265.33 2149.1C1240.65 2144.95 1223.99 2121.51 1228.13 2096.74C1232.27 2071.97 1255.63 2055.25 1280.31 2059.4C1282.93 2059.84 1285.46 2060.5 1287.88 2061.35L1288.16 2061.45L1288.38 2061.25C1296.56 2053.82 1306.44 2048.38 1317.23 2045.5L1317.61 2045.4L1317.6 2045.01C1317.43 2037.14 1317.99 2029.14 1319.33 2021.08C1329.97 1957.37 1386.1 1912.71 1448.75 1914.98L1449.32 1915L1449.27 1914.44C1448.45 1905.53 1448.75 1896.36 1450.3 1887.12C1459.95 1829.3 1514.48 1790.29 1572.09 1799.98C1618 1807.7 1652.02 1844.01 1659.06 1887.71Z" fill="#0C0B0B" stroke="white"/>
</g>
<defs>
<clipPath id="clip0_876_46924">
<rect width="1440" height="3270" fill="white"/>
</clipPath>
</defs>
</svg>
